<?xml version="1.0" encoding="UTF-8"?>
<svg id="_Слой_1" data-name="Слой 1" xmlns="http://www.w3.org/2000/svg" xmlns:xlink="http://www.w3.org/1999/xlink" viewBox="0 0 950.26 920.37">
  <defs>
    <style>
      .cls-1 {
        fill: #c31921;
      }

      .cls-1, .cls-2, .cls-3, .cls-4, .cls-5, .cls-6 {
        stroke: #000;
        stroke-miterlimit: 10;
      }

      .cls-2 {
        fill: none;
      }

      .cls-7 {
        filter: url(#outer-glow-1);
      }

      .cls-3 {
        fill: #eae8e8;
      }

      .cls-4 {
        fill: #f6f3f3;
      }

      .cls-5 {
        fill: #fff;
        stroke-width: 3px;
      }

      .cls-6 {
        fill: #980000;
      }
    </style>
    <filter id="outer-glow-1" filterUnits="userSpaceOnUse">
      <feOffset dx="0" dy="0"/>
      <feGaussianBlur result="blur" stdDeviation="10"/>
      <feFlood flood-color="#ff0505" flood-opacity="1"/>
      <feComposite in2="blur" operator="in"/>
      <feComposite in="SourceGraphic"/>
    </filter>
  </defs>
  <path d="m227.1,320.89c45.8,0,84.49,4.9,116.06,14.67,31.56,9.78,56.98,25.85,76.26,48.19,19.27,22.35,33.38,52.66,42.32,90.92,8.93,38.27,13.41,86.18,13.41,143.72s-4.48,105.46-13.41,143.72c-8.94,38.27-23.04,68.59-42.32,90.92-19.27,22.35-44.7,38.42-76.26,48.19-31.57,9.77-70.26,14.67-116.06,14.67s-84.64-.84-121.51-2.51-72.07-3.64-105.59-5.87l53.63-94.7c21.23,1.13,46.51,2.1,75.84,2.93,29.33.84,61.87,1.26,97.63,1.26,28.49,0,50.97-5.72,67.46-17.18,16.47-11.44,28.2-31.7,35.2-60.76,6.98-29.04,10.48-69.27,10.48-120.67s-3.5-91.62-10.48-120.67c-6.99-29.04-18.72-49.44-35.2-61.17-16.48-11.73-38.97-17.6-67.46-17.6-34.08,0-64.53.14-91.34.42-26.82.29-53.08.42-78.77.42L0,329.27c33.52-2.23,68.57-4.19,105.17-5.87,36.58-1.68,77.23-2.51,121.93-2.51Zm-98.89,8.38v578.23H0V329.27h128.21Z"/>
  <g class="cls-7">
    <text/>
    <path class="cls-4" d="m707.14,659.09c-14.75-12.67-59.46-35.6-76.55-40.85-38.36-49.75-80.48-241.79-113.9-309.48-140.56-83.98-75.18,11.09-146.26,65.16-128.09,102.03-122.28,207.07-114.45,431.19-1.49,5.24-7.41,20.84-21.7,9.35C138.63,714.61-121.52,423.93,95.49,228.64c-1.12,5.73,105.32-110.35,307.23-126.92-14.59,33.23,159.35-2.09,152.77-60.3-10.42-31.01,3.41-72.07,33.82-3.98,0,0,41.96,114.75,47.19,152.91,11.06,14.74,45.33-11.74,55.45-21.1,24.11-13.58-.52,40.48,22.6,29.31,60.75-58.46-48.9,284.81,54.04,348.38,11.86,11.35-14.3,13.94-8.61,27.92"/>
    <path class="cls-1" d="m545.89,384.71c59.99-149.25-131.55-284.77-223.86-75.34-101.03,99.49-117.05,86.95-125.59,267.44.35,4.62,7.7,132.31,14.19,143.86-12.48,21.39-94.74-161.52-107.94-184.16C-.31,336.69,190.34,183.96,407.87,117.06l7.92-2.96s117.26-1.13,139.56-65.3c0,0-7.33-37.66.29-44.78,7.62-7.12,12.26-.65,12.26-.65,0,0,14.59,17.17,20.35,31.74,5.76,14.58,37.02,106.95,37.02,106.95l10.74,45.1s.14.78,3.25,18.66c3.12,17.88,12.91,30.96,17.34,34.41,4.43,3.45,10.13,11.99,20.91,2.57,10.78-9.42,23.88-37.68,23.74-41.66-.15-3.98,3.32-6.56,3.42-4.33.1,2.23,4.1,5.08,8.55,2.34,4.46-2.74,8.74-8.14,12.14-7.22s5.16,1.26,6.98,7.1c1.82,5.84,1.82,32.17.88,42.24-.93,10.07-6.38,72.59-6.38,72.59,0,0-6.51,90.26-4.61,96.21,1.9,5.95.02,53.81,8.97,78.52,8.95,24.71,16.06,40.95,26.37,49.77,10.31,8.82,10.77,6.41,13.26,11.33,2.49,4.92-4.82,11.01-9.99,16.15-5.17,5.15,5.65,51,5.65,51l5.04,21.16-64.4,21.1s-59.87-37.68-76.55-40.85c0,0-23.5-37.36-32.92-69.64-9.42-32.28-24.78-74.82-24.78-74.82l-20.24-65.43-6.76-23.64Z"/>
    <path class="cls-3" d="m280.29,233.89c4.82,102.07-95.27,88.83-111.89,244.14-32.48,34.2-36.67-68.89,2.56-153.81-7.62,8.8,65.23-105.38,109.32-90.33Z"/>
    <path class="cls-2" d="m636.77,192.48c2.93,28.57,34.38,103.12,65.85,4.49"/>
    <path class="cls-6" d="m596.2,472.53l-24.29-18.68c-6.64-2.87,2.09,16.79,3.12,17.22,1.3-.81,26.02,8.95,21.18,1.46Z"/>
    <path class="cls-6" d="m609.95,573.04l20.12,8.48c6.4,6.65-17.59.83-18.77,1.61-1.92-.42-6.17-11.35-1.35-10.09Z"/>
    <path class="cls-6" d="m669.75,247c2.98,12.83-38.8,319.68,3.61,360.41,7.95-8.12,44.71-30.17,49.4-36.96-5.63-38.78-82.61-281.91-33.96-340.28,2.96-3.56-11.46,16.6-19.04,16.83-.26,0-.06-.25,0,0Z"/>
  </g>
  <path class="cls-5" d="m738.42,318.85c28.49,0,59.5,1.54,93.02,4.61,33.52,3.08,66.2,9.36,98.05,18.86l-8.38,84.64c-24.59-.55-53.36-1.11-86.31-1.68-32.97-.55-65.37-.84-97.21-.84-15.65,0-28.91.42-39.81,1.26-10.89.84-19.69,3.08-26.4,6.7-6.7,3.64-11.46,9.09-14.25,16.34-2.8,7.27-4.19,17.32-4.19,30.17,0,19.56,4.61,33.81,13.83,42.74,9.22,8.94,25,17.05,47.35,24.3l111.46,36.03c46.37,15.65,78.49,36.87,96.37,63.69,17.87,26.82,26.82,62.01,26.82,105.59,0,32.97-3.92,60.34-11.73,82.12-7.83,21.79-20.11,38.84-36.87,51.12-16.76,12.29-38.84,21.09-66.2,26.4-27.38,5.3-60.9,7.96-100.56,7.96-19,0-46.09-1.26-81.29-3.77s-75.42-8.8-120.67-18.86l8.38-90.5c32.96.56,61.59,1.26,85.9,2.1,24.3.84,45.11,1.4,62.43,1.68,17.31.29,32.39.42,45.25.42,22.34,0,39.81-1.39,52.38-4.19,12.57-2.79,21.37-8.38,26.4-16.76,5.03-8.38,7.54-20.39,7.54-36.03,0-13.41-1.82-24.16-5.45-32.26-3.64-8.09-9.51-14.52-17.6-19.27-8.11-4.74-19.14-9.07-33.1-12.99l-117.32-40.22c-44.14-16.2-75.42-37.42-93.86-63.69-18.44-26.25-27.65-60.89-27.65-103.91,0-33.52,4.05-60.76,12.15-81.71,8.09-20.95,20.66-37.29,37.71-49.02,17.04-11.73,39.1-19.82,66.2-24.3,27.09-4.47,59.63-6.7,97.63-6.7Z"/>
</svg>